<svg id="Слой_1" data-name="Слой 1" xmlns="http://www.w3.org/2000/svg" viewBox="0 0 20.0041 20.0043"><defs><style>.cls-1{fill:#e5a359;}</style></defs><title>percent_icon</title><path class="cls-1" d="M1.8969,19.1422a1.0346,1.0346,0,0,1-.7316-1.7661L17.3756,1.1654a1.03453,1.03453,0,0,1,1.463,1.4631L2.6284,18.8391A1.03086,1.03086,0,0,1,1.8969,19.1422Zm18.1072-3.9664a4.82855,4.82855,0,1,0-4.8285,4.8285A4.83392,4.83392,0,0,0,20.0041,15.1758Zm-2.0695,0a2.75925,2.75925,0,1,1-2.759-2.7591A2.76238,2.76238,0,0,1,17.9346,15.1758ZM9.6572,4.8287A4.8286,4.8286,0,1,0,4.8286,9.6573,4.83409,4.83409,0,0,0,9.6572,4.8287Zm-2.0694,0A2.7592,2.7592,0,1,1,4.8286,2.0693,2.76228,2.76228,0,0,1,7.5878,4.8287Z"/></svg>